<svg xmlns="http://www.w3.org/2000/svg" xmlns:xlink="http://www.w3.org/1999/xlink" width="2500" zoomAndPan="magnify" viewBox="0 0 1874.88 1874.999927" height="2500" preserveAspectRatio="xMidYMid meet" version="1.0"><defs><clipPath id="cc7cec6c1d"><path d="M 43.355469 158 L 1467 158 L 1467 354 L 43.355469 354 Z M 43.355469 158 " clip-rule="nonzero"/></clipPath><clipPath id="c414e3d0ff"><path d="M 43.8125 251 L 1831.242188 251 L 1831.242188 1874.847656 L 43.8125 1874.847656 Z M 43.8125 251 " clip-rule="nonzero"/></clipPath><clipPath id="afbbf25255"><path d="M 107 254 L 1467 254 L 1467 1874.847656 L 107 1874.847656 Z M 107 254 " clip-rule="nonzero"/></clipPath><clipPath id="3e76e06799"><path d="M 138 251 L 1473.574219 251 L 1473.574219 1874.847656 L 138 1874.847656 Z M 138 251 " clip-rule="nonzero"/></clipPath></defs><g clip-path="url(#cc7cec6c1d)"><path fill="#f9ad1f" d="M 754.394531 158.695312 C 361.480469 162.160156 43.332031 208.488281 43.8125 262.1875 C 43.8125 262.972656 43.902344 263.792969 44.0625 264.578125 C 53.789062 317.101562 369.046875 356.523438 756.125 353.09375 C 1143.238281 349.667969 1457.730469 304.679688 1466.527344 251.996094 C 1466.667969 251.210938 1466.757812 250.371094 1466.738281 249.585938 C 1466.277344 195.886719 1147.359375 155.199219 754.394531 158.695312 " fill-opacity="1" fill-rule="nonzero"/></g><path fill="#8f2a23" d="M 1428.109375 284.65625 C 1428.535156 333.589844 1127.804688 375.921875 756.375 379.203125 C 384.945312 382.507812 83.496094 345.492188 83.070312 296.558594 C 82.621094 247.625 383.375 205.292969 754.804688 202.007812 C 1126.234375 198.726562 1427.679688 235.722656 1428.109375 284.65625 " fill-opacity="1" fill-rule="nonzero"/><path fill="#7f2825" d="M 359.785156 311.726562 L 1175.785156 304.5 C 1175.785156 304.5 1106.605469 316.242188 1061.445312 316.636719 C 1016.265625 317.046875 801.820312 309.355469 775.769531 313.601562 C 749.699219 317.867188 573.265625 325.058594 544.570312 321.222656 C 515.878906 317.386719 387.515625 322.363281 359.785156 311.726562 " fill-opacity="1" fill-rule="nonzero"/><g clip-path="url(#c414e3d0ff)"><path fill="#f9ad1f" d="M 1702.238281 1011.300781 L 1702.203125 1011.460938 C 1690.425781 1089.199219 1639.195312 1155.015625 1568.304688 1189.691406 C 1539.523438 1203.792969 1507.476562 1212.75 1473.519531 1215.320312 C 1473.628906 1213.714844 1473.734375 1212.144531 1473.753906 1210.535156 L 1473.753906 1210.5 C 1474.609375 1195.546875 1474.984375 1180.429688 1474.839844 1165.242188 L 1471.074219 738.96875 C 1509.457031 741.449219 1545.570312 752.121094 1577.332031 769.21875 C 1652.792969 809.78125 1704.039062 886.519531 1704.824219 975.019531 C 1704.933594 987.386719 1704.058594 999.46875 1702.238281 1011.300781 M 1580.136719 638.582031 C 1545.464844 626.855469 1508.457031 619.84375 1470.003906 618.34375 L 1466.792969 254.136719 C 1466.773438 253.386719 1466.6875 252.691406 1466.527344 251.996094 C 1466.382812 252.851562 1466.152344 253.726562 1465.8125 254.585938 C 1462.476562 264.023438 1449.304688 273.214844 1427.769531 281.90625 C 1413.726562 287.5625 1396.167969 293.023438 1375.433594 298.234375 C 1253.597656 328.808594 1022.007812 350.738281 756.125 353.09375 C 369.046875 356.523438 53.789062 317.101562 44.0625 264.578125 C 43.921875 265.292969 43.847656 265.988281 43.847656 266.738281 L 51.914062 1177.859375 C 52.753906 1273.175781 72.308594 1363.90625 107.050781 1446.679688 L 107.050781 1446.730469 C 116.507812 1469.324219 127.140625 1491.3125 138.8125 1512.621094 C 175.015625 1578.882812 221.480469 1638.6875 276.027344 1689.996094 C 335.839844 1746.226562 405.359375 1792.253906 481.78125 1825.234375 C 569.980469 1863.300781 670.9375 1875.703125 773.199219 1874.808594 C 940.195312 1873.328125 1089.707031 1822.734375 1210.203125 1725.3125 C 1214.34375 1721.976562 1218.429688 1718.566406 1222.515625 1715.121094 C 1226.441406 1711.785156 1230.347656 1708.410156 1234.203125 1705.003906 L 1234.542969 1704.699219 C 1236.84375 1702.71875 1239.09375 1700.648438 1241.359375 1698.597656 C 1244.765625 1695.507812 1248.15625 1692.367188 1251.511719 1689.210938 C 1252.527344 1688.246094 1253.527344 1687.300781 1254.457031 1686.355469 L 1255.472656 1685.40625 C 1257.773438 1683.230469 1260.058594 1681 1262.359375 1678.714844 C 1266.945312 1674.238281 1271.496094 1669.648438 1275.921875 1664.972656 C 1278.417969 1662.441406 1280.828125 1659.871094 1283.238281 1657.300781 C 1286.074219 1654.285156 1288.910156 1651.214844 1291.660156 1648.128906 C 1294.460938 1645.039062 1297.226562 1641.917969 1299.9375 1638.792969 C 1301.132812 1637.402344 1302.382812 1635.992188 1303.578125 1634.5625 C 1309.144531 1628.121094 1314.535156 1621.609375 1319.761719 1614.96875 C 1320.546875 1614.003906 1321.316406 1613.023438 1322.101562 1612.042969 L 1322.207031 1611.882812 C 1323.421875 1610.417969 1324.546875 1608.953125 1325.617188 1607.492188 L 1326.328125 1606.582031 C 1327.953125 1604.527344 1329.542969 1602.476562 1331.09375 1600.386719 L 1331.21875 1600.261719 C 1331.648438 1599.746094 1332.023438 1599.191406 1332.378906 1598.691406 L 1332.449219 1598.566406 C 1334.625 1595.730469 1336.75 1592.839844 1338.855469 1589.949219 C 1350.238281 1574.316406 1361 1558.21875 1371.0625 1541.691406 C 1372.757812 1538.980469 1374.382812 1536.214844 1376.003906 1533.445312 C 1376.808594 1532.144531 1377.59375 1530.804688 1378.324219 1529.503906 C 1380.339844 1526.113281 1382.304688 1522.648438 1384.230469 1519.171875 C 1390.996094 1507.195312 1397.363281 1494.96875 1403.394531 1482.566406 C 1404.179688 1480.980469 1404.910156 1479.445312 1405.644531 1477.875 C 1407.019531 1475 1408.375 1472.164062 1409.675781 1469.289062 C 1411.40625 1465.507812 1413.101562 1461.757812 1414.761719 1457.976562 C 1415.566406 1456.171875 1416.367188 1454.386719 1417.097656 1452.621094 C 1418.757812 1448.765625 1420.398438 1444.894531 1421.96875 1441.003906 C 1423.558594 1437.21875 1425.058594 1433.417969 1426.539062 1429.601562 C 1430.269531 1420.035156 1433.78125 1410.34375 1437.121094 1400.582031 C 1438.761719 1395.710938 1440.332031 1390.875 1441.847656 1385.949219 C 1443.257812 1381.574219 1444.632812 1377.167969 1445.933594 1372.757812 C 1448.683594 1363.40625 1451.214844 1353.96875 1453.605469 1344.457031 L 1453.640625 1344.257812 C 1454.375 1341.671875 1454.964844 1339.03125 1455.605469 1336.441406 L 1456.90625 1336.425781 C 1458.28125 1336.40625 1459.65625 1336.390625 1461.03125 1336.351562 C 1497.339844 1335.675781 1532.402344 1330.105469 1565.484375 1320.328125 C 1720.617188 1274.570312 1832.707031 1136.351562 1831.28125 973.914062 C 1829.90625 818.757812 1725.378906 687.515625 1580.136719 638.582031 " fill-opacity="1" fill-rule="nonzero"/></g><path fill="#e46c1a" d="M 1473.753906 1210.535156 C 1473.734375 1212.144531 1473.628906 1213.714844 1473.519531 1215.320312 C 1507.476562 1212.75 1539.523438 1203.792969 1568.304688 1189.691406 L 1565.484375 1320.328125 C 1532.402344 1330.105469 1497.339844 1335.675781 1461.03125 1336.351562 C 1459.65625 1336.390625 1458.28125 1336.40625 1456.90625 1336.425781 L 1455.605469 1336.441406 C 1454.964844 1339.03125 1454.375 1341.671875 1453.640625 1344.257812 L 1453.605469 1344.457031 C 1451.214844 1353.96875 1448.683594 1363.40625 1445.933594 1372.757812 C 1443.152344 1382.128906 1440.207031 1391.375 1437.121094 1400.582031 L 1469.09375 586.292969 L 1469.71875 586.292969 L 1470.003906 618.34375 C 1508.457031 619.84375 1545.464844 626.855469 1580.136719 638.582031 L 1577.332031 769.21875 C 1545.570312 752.121094 1509.457031 741.449219 1471.074219 738.96875 L 1474.839844 1165.261719 C 1474.984375 1180.429688 1474.609375 1195.546875 1473.753906 1210.5 L 1473.753906 1210.535156 " fill-opacity="1" fill-rule="nonzero"/><path fill="#fbc053" d="M 1615.644531 693.976562 C 1615.644531 693.976562 1744.953125 748.390625 1762.957031 863.070312 C 1762.957031 863.070312 1662.070312 736.558594 1615.644531 693.976562 " fill-opacity="1" fill-rule="nonzero"/><g clip-path="url(#afbbf25255)"><path fill="#f59c0f" d="M 1441.847656 1385.949219 C 1440.332031 1390.875 1438.761719 1395.710938 1437.121094 1400.582031 C 1433.78125 1410.34375 1430.269531 1420.035156 1426.539062 1429.601562 C 1425.058594 1433.417969 1423.558594 1437.21875 1421.96875 1441.003906 C 1420.398438 1444.894531 1418.757812 1448.765625 1417.097656 1452.621094 C 1416.367188 1454.386719 1415.566406 1456.171875 1414.761719 1457.976562 C 1413.101562 1461.757812 1411.40625 1465.507812 1409.675781 1469.289062 C 1408.375 1472.164062 1407.019531 1475 1405.644531 1477.875 C 1404.910156 1479.445312 1404.179688 1480.980469 1403.394531 1482.566406 C 1397.363281 1494.96875 1390.996094 1507.195312 1384.230469 1519.171875 C 1382.304688 1522.648438 1380.339844 1526.113281 1378.324219 1529.503906 C 1377.59375 1530.804688 1376.808594 1532.144531 1376.003906 1533.445312 C 1374.382812 1536.214844 1372.757812 1538.980469 1371.0625 1541.691406 C 1361 1558.21875 1350.238281 1574.316406 1338.855469 1589.949219 C 1336.75 1592.839844 1334.625 1595.730469 1332.449219 1598.566406 L 1332.378906 1598.691406 C 1332.023438 1599.191406 1331.648438 1599.746094 1331.21875 1600.261719 L 1331.09375 1600.386719 C 1329.542969 1602.476562 1327.953125 1604.527344 1326.328125 1606.582031 L 1325.617188 1607.492188 C 1324.546875 1608.953125 1323.421875 1610.417969 1322.207031 1611.882812 L 1322.101562 1612.042969 C 1321.316406 1613.023438 1320.546875 1614.003906 1319.761719 1614.96875 C 1314.535156 1621.609375 1309.144531 1628.121094 1303.578125 1634.5625 C 1302.382812 1635.992188 1301.132812 1637.402344 1299.9375 1638.792969 C 1297.226562 1641.917969 1294.460938 1645.039062 1291.660156 1648.128906 C 1288.910156 1651.214844 1286.074219 1654.285156 1283.238281 1657.300781 C 1280.828125 1659.871094 1278.417969 1662.441406 1275.921875 1664.972656 C 1271.496094 1669.648438 1266.945312 1674.238281 1262.359375 1678.714844 C 1260.058594 1681 1257.773438 1683.230469 1255.472656 1685.40625 L 1254.457031 1686.355469 C 1253.527344 1687.300781 1252.527344 1688.246094 1251.511719 1689.210938 C 1248.15625 1692.367188 1244.765625 1695.507812 1241.359375 1698.597656 C 1239.09375 1700.648438 1236.84375 1702.71875 1234.542969 1704.699219 L 1234.203125 1705.003906 C 1230.347656 1708.410156 1226.441406 1711.785156 1222.515625 1715.121094 C 1218.429688 1718.566406 1214.34375 1721.976562 1210.203125 1725.3125 C 1089.707031 1822.734375 940.195312 1873.328125 773.199219 1874.808594 C 670.9375 1875.703125 569.980469 1863.300781 481.78125 1825.234375 C 405.359375 1792.253906 335.839844 1746.226562 276.027344 1689.996094 C 221.480469 1638.6875 175.015625 1578.882812 138.8125 1512.621094 C 127.140625 1491.3125 116.507812 1469.324219 107.050781 1446.730469 L 107.050781 1446.679688 C 444.683594 814.671875 1128.714844 423.550781 1375.433594 298.234375 C 1396.167969 293.023438 1413.726562 287.5625 1427.769531 281.90625 C 1449.304688 273.214844 1462.476562 264.023438 1465.8125 254.585938 C 1466.3125 254.351562 1466.632812 254.226562 1466.738281 254.171875 C 1464.757812 260.722656 1402.59375 900.046875 1441.847656 1385.949219 " fill-opacity="1" fill-rule="nonzero"/></g><g clip-path="url(#3e76e06799)"><path fill="#f08e12" d="M 1466.792969 254.136719 L 1469.09375 586.292969 L 1473.519531 1215.320312 C 1473.519531 1215.320312 1454.910156 1337.851562 1453.640625 1344.257812 L 1453.605469 1344.457031 C 1451.214844 1353.96875 1448.683594 1363.40625 1445.933594 1372.757812 C 1443.152344 1382.128906 1440.207031 1391.375 1437.121094 1400.582031 C 1433.78125 1410.34375 1430.269531 1420.035156 1426.539062 1429.601562 C 1425.058594 1433.417969 1423.558594 1437.21875 1421.96875 1441.003906 C 1420.398438 1444.894531 1418.757812 1448.765625 1417.097656 1452.621094 C 1416.367188 1454.386719 1415.566406 1456.171875 1414.761719 1457.976562 C 1413.101562 1461.757812 1411.40625 1465.507812 1409.675781 1469.289062 C 1408.375 1472.164062 1407.019531 1475 1405.644531 1477.875 C 1404.910156 1479.445312 1404.179688 1480.980469 1403.394531 1482.566406 C 1397.363281 1494.96875 1390.996094 1507.195312 1384.230469 1519.171875 C 1382.304688 1522.648438 1380.339844 1526.113281 1378.324219 1529.503906 C 1377.59375 1530.804688 1376.808594 1532.144531 1376.003906 1533.445312 C 1374.382812 1536.214844 1372.757812 1538.980469 1371.0625 1541.691406 C 1361 1558.21875 1350.238281 1574.316406 1338.855469 1589.949219 C 1336.75 1592.839844 1334.625 1595.730469 1332.449219 1598.566406 L 1332.378906 1598.691406 C 1332.023438 1599.191406 1331.648438 1599.746094 1331.21875 1600.261719 L 1331.09375 1600.386719 C 1329.542969 1602.476562 1327.953125 1604.527344 1326.328125 1606.582031 L 1325.617188 1607.492188 C 1324.546875 1608.953125 1323.421875 1610.417969 1322.207031 1611.882812 L 1322.101562 1612.042969 C 1321.316406 1613.023438 1320.546875 1614.003906 1319.761719 1614.96875 C 1314.535156 1621.609375 1309.144531 1628.121094 1303.578125 1634.5625 C 1302.382812 1635.992188 1301.132812 1637.402344 1299.9375 1638.792969 C 1297.226562 1641.917969 1294.460938 1645.039062 1291.660156 1648.128906 C 1288.910156 1651.214844 1286.074219 1654.285156 1283.238281 1657.300781 C 1280.828125 1659.871094 1278.417969 1662.441406 1275.921875 1664.972656 C 1271.496094 1669.648438 1266.945312 1674.238281 1262.359375 1678.714844 C 1260.058594 1681 1257.773438 1683.230469 1255.472656 1685.40625 L 1254.457031 1686.355469 C 1253.527344 1687.300781 1252.527344 1688.246094 1251.511719 1689.210938 C 1248.15625 1692.367188 1244.765625 1695.507812 1241.359375 1698.597656 C 1239.09375 1700.648438 1236.84375 1702.71875 1234.542969 1704.699219 L 1234.203125 1705.003906 C 1230.347656 1708.410156 1226.441406 1711.785156 1222.515625 1715.121094 C 1218.429688 1718.566406 1214.34375 1721.976562 1210.203125 1725.3125 C 1089.707031 1822.734375 940.195312 1873.328125 773.199219 1874.808594 C 670.9375 1875.703125 569.980469 1863.300781 481.78125 1825.234375 C 405.359375 1792.253906 335.839844 1746.226562 276.027344 1689.996094 C 221.480469 1638.6875 175.015625 1578.882812 138.8125 1512.621094 C 773.023438 1699.292969 1179.476562 1426.671875 1299.601562 1229.453125 C 1369.207031 1115.273438 1426.984375 433.191406 1427.769531 281.90625 C 1451.289062 272.414062 1464.8125 262.328125 1466.527344 251.996094 C 1466.6875 252.691406 1466.773438 253.40625 1466.792969 254.136719 " fill-opacity="1" fill-rule="nonzero"/></g><path fill="#fbbf4d" d="M 272.496094 1068.625 C 221.640625 1068.625 179.796875 1027.238281 179.335938 976.269531 L 176.085938 607.546875 C 175.621094 556.3125 217.179688 514.015625 268.410156 513.550781 C 268.695312 513.550781 268.960938 513.550781 269.246094 513.550781 C 320.101562 513.550781 361.945312 554.9375 362.390625 605.90625 L 365.65625 974.628906 C 366.101562 1025.863281 324.5625 1068.160156 273.316406 1068.625 C 273.046875 1068.625 272.78125 1068.625 272.496094 1068.625 " fill-opacity="1" fill-rule="nonzero"/><path fill="#fbbf4d" d="M 194.875 1298.804688 C 191.878906 1289.972656 190.21875 1280.53125 190.128906 1270.734375 L 189.878906 1241.410156 C 189.433594 1191.585938 229.832031 1150.464844 279.648438 1150.019531 L 284.808594 1149.984375 C 285.074219 1149.96875 285.359375 1149.96875 285.628906 1149.96875 C 290.785156 1149.96875 295.851562 1150.414062 300.792969 1151.25 C 263.714844 1198.652344 228.261719 1247.800781 194.875 1298.804688 " fill-opacity="1" fill-rule="nonzero"/><path fill="#f9b847" d="M 280.703125 1360.535156 C 241.035156 1360.535156 207.007812 1334.640625 194.875 1298.804688 C 228.261719 1247.800781 263.714844 1198.652344 300.792969 1151.25 C 343.136719 1158.480469 375.789062 1195.386719 376.183594 1239.769531 L 376.449219 1269.089844 C 376.898438 1318.917969 336.5 1360.035156 286.679688 1360.480469 L 281.507812 1360.515625 C 281.238281 1360.515625 280.972656 1360.535156 280.703125 1360.535156 " fill-opacity="1" fill-rule="nonzero"/><path fill="#e61d25" d="M 867.019531 848.3125 C 803.675781 817.367188 754.304688 885.949219 732.089844 939.84375 C 708.945312 886.359375 658.359375 818.652344 595.570312 850.722656 C 498.910156 900.101562 669.742188 1288.148438 726.253906 1287.652344 C 794.042969 1287.0625 964.554688 895.980469 867.019531 848.3125 " fill-opacity="1" fill-rule="nonzero"/><path fill="#ee2622" d="M 842.023438 901.851562 C 790.527344 876.667969 750.394531 932.4375 732.339844 976.234375 C 713.515625 932.761719 672.382812 877.722656 621.351562 903.796875 C 542.769531 943.949219 681.664062 1259.398438 727.59375 1259.007812 C 782.691406 1258.507812 921.300781 940.59375 842.023438 901.851562 " fill-opacity="1" fill-rule="nonzero"/><path fill="#f8e8db" d="M 738.296875 178.523438 L 738.171875 178.828125 L 735.78125 186.660156 L 727.003906 215.144531 L 708.320312 275.730469 C 707.519531 278.285156 706.644531 280.800781 705.679688 283.246094 C 702.113281 292.523438 697.367188 301.089844 691.746094 308.785156 L 450.375 310.925781 C 412.261719 289.957031 389.691406 248.464844 392.652344 205.238281 C 393.242188 196.796875 394.777344 188.265625 397.398438 179.808594 L 408.300781 144.492188 L 408.335938 144.417969 L 427.304688 82.921875 C 436.867188 51.886719 458.65625 28.042969 485.777344 15 C 510.347656 3.183594 539.21875 0.257812 567.304688 8.914062 L 664.210938 38.804688 C 689.675781 46.65625 710.320312 62.753906 724.078125 83.277344 C 742.277344 110.296875 748.539062 144.917969 738.296875 178.523438 " fill-opacity="1" fill-rule="nonzero"/><path fill="#f8e8db" d="M 1060.675781 231.8125 C 1060.746094 238.914062 1060.140625 245.894531 1058.910156 252.65625 C 1055.359375 272.699219 1046.417969 290.902344 1033.644531 305.765625 L 753.769531 308.246094 C 748.289062 302.125 743.492188 295.378906 739.457031 288.171875 C 730.644531 272.359375 725.59375 254.15625 725.414062 234.773438 C 725.363281 228.066406 725.878906 221.515625 727.003906 215.144531 C 728.644531 205.132812 731.625 195.601562 735.78125 186.660156 C 738.886719 179.96875 742.597656 173.652344 746.953125 167.78125 L 747.21875 167.386719 C 750.359375 163.121094 753.769531 159.089844 757.496094 155.289062 C 777.609375 134.855469 805.496094 122.058594 836.402344 121.789062 L 947.710938 120.808594 C 972.082031 120.578125 994.691406 128.195312 1013.210938 141.296875 L 1013.25 141.296875 C 1041.671875 161.355469 1060.355469 194.351562 1060.675781 231.8125 " fill-opacity="1" fill-rule="nonzero"/><path fill="#fef6f0" d="M 1013.210938 141.296875 C 958.378906 127.859375 746.953125 167.78125 746.953125 167.78125 L 747.21875 167.386719 C 750.359375 163.121094 753.769531 159.089844 757.496094 155.289062 C 777.609375 134.855469 805.496094 122.058594 836.402344 121.789062 L 947.710938 120.808594 C 972.082031 120.578125 994.691406 128.195312 1013.210938 141.296875 " fill-opacity="1" fill-rule="nonzero"/><path fill="#eedac9" d="M 705.679688 283.246094 C 702.113281 292.523438 697.367188 301.089844 691.746094 308.785156 L 450.375 310.925781 C 412.261719 289.957031 389.691406 248.464844 392.652344 205.238281 L 392.6875 205.203125 C 392.6875 205.203125 507.101562 297.59375 705.679688 283.246094 " fill-opacity="1" fill-rule="nonzero"/><path fill="#eedac9" d="M 1058.910156 252.65625 C 1055.359375 272.699219 1046.417969 290.902344 1033.644531 305.765625 L 753.769531 308.246094 C 748.289062 302.125 743.492188 295.378906 739.457031 288.171875 C 783.746094 292.203125 928.011719 301.484375 1058.910156 252.65625 " fill-opacity="1" fill-rule="nonzero"/><path fill="#fef6f0" d="M 738.296875 178.523438 L 738.171875 178.828125 C 675.113281 64.609375 541.183594 26.277344 485.777344 15 C 510.347656 3.183594 539.21875 0.257812 567.304688 8.914062 L 664.210938 38.804688 C 689.675781 46.65625 710.320312 62.753906 724.078125 83.277344 C 742.277344 110.296875 748.539062 144.917969 738.296875 178.523438 " fill-opacity="1" fill-rule="nonzero"/></svg>