<svg xmlns="http://www.w3.org/2000/svg" xmlns:xlink="http://www.w3.org/1999/xlink" width="176" zoomAndPan="magnify" viewBox="0 0 132 42" height="56" preserveAspectRatio="xMidYMid meet" version="1.0"><defs><g/><clipPath id="89351a1909"><path d="M 67 0 L 130.464844 0 L 130.464844 41.023438 L 67 41.023438 Z M 67 0 " clip-rule="nonzero"/></clipPath></defs><g fill="#ffffff" fill-opacity="1"><g transform="translate(2.441551, 25.260096)"><g><path d="M 16.0625 0 L 12 0 L 11.109375 -1.5625 L 5.0625 -1.5625 L 4.171875 0 L 0.09375 0 L 6.21875 -9.5625 L 9.953125 -9.5625 Z M 9.75 -3.9375 L 8.09375 -6.828125 L 6.421875 -3.9375 Z M 9.75 -3.9375 "/></g></g><g transform="translate(18.60824, 25.260096)"><g><path d="M 6.734375 0.203125 C 4.398438 0.203125 2.753906 -0.28125 1.796875 -1.25 C 0.992188 -2.0625 0.59375 -3.238281 0.59375 -4.78125 L 0.59375 -9.5625 L 4.609375 -9.5625 L 4.609375 -4.78125 C 4.609375 -4.113281 4.722656 -3.582031 4.953125 -3.1875 C 5.273438 -2.632812 5.867188 -2.359375 6.734375 -2.359375 C 7.597656 -2.359375 8.191406 -2.632812 8.515625 -3.1875 C 8.734375 -3.59375 8.84375 -4.125 8.84375 -4.78125 L 8.84375 -9.5625 L 12.859375 -9.5625 L 12.859375 -4.71875 C 12.859375 -3.21875 12.460938 -2.0625 11.671875 -1.25 C 10.710938 -0.28125 9.066406 0.203125 6.734375 0.203125 Z M 6.734375 0.203125 "/></g></g><g transform="translate(32.068259, 25.260096)"><g><path d="M 15.265625 0 L 10.484375 0 L 5.078125 -6.46875 L 5.078125 0 L 1.0625 0 L 1.0625 -9.5625 L 5.84375 -9.5625 L 11.25 -3.125 L 11.25 -9.5625 L 15.265625 -9.5625 Z M 15.265625 0 "/></g></g><g transform="translate(48.394948, 25.260096)"><g><path d="M 8.15625 0 L 4.140625 0 L 4.140625 -7.203125 L 0.40625 -7.203125 L 0.40625 -9.5625 L 11.90625 -9.5625 L 11.90625 -7.203125 L 8.15625 -7.203125 Z M 8.15625 0 "/></g></g><g transform="translate(60.701632, 25.260096)"><g><path d="M 5.078125 0 L 1.0625 0 L 1.0625 -9.5625 L 5.078125 -9.5625 Z M 5.078125 0 "/></g></g><g transform="translate(66.848307, 25.260096)"><g><path d="M 12.59375 0 L 1.0625 0 L 1.0625 -9.5625 L 12.0625 -9.5625 L 12.0625 -7.203125 L 5.078125 -7.203125 L 5.078125 -5.703125 L 10.984375 -5.703125 L 10.984375 -3.859375 L 5.078125 -3.859375 L 5.078125 -2.359375 L 12.59375 -2.359375 Z M 12.59375 0 "/></g></g></g><g clip-path="url(#89351a1909)"><path stroke-linecap="butt" transform="matrix(0.0614275, -0.00935027, 0.00935027, 0.0614275, 79.400616, 16.145327)" fill="none" stroke-linejoin="miter" d="M 86.975594 191.217967 C 81.66029 191.044803 76.424741 189.929911 71.259487 187.935441 C 66.103694 185.878821 61.873463 182.754853 58.487722 178.67838 C 55.120902 174.477604 53.497071 169.270316 53.448694 162.903831 C 53.470491 158.582946 54.689448 152.663734 57.043414 145.136735 C 59.468991 137.557046 62.676907 129.01539 66.623932 119.378006 C 70.570957 109.740622 74.85173 99.581719 79.475713 88.839146 C 84.099695 78.096572 88.642605 67.468841 93.113904 56.893801 C 97.585203 46.31876 101.445767 36.41385 104.705057 27.11692 C 100.828691 27.099195 96.923944 27.267923 93.052966 27.632565 C 89.191449 27.935056 85.473156 28.132166 81.845394 28.152282 C 74.981699 28.124975 68.799034 26.54796 63.4217 23.440158 C 58.001136 20.198593 55.286965 14.634564 55.279185 6.748069 C 55.299665 1.600298 56.218643 -3.601481 58.026659 -8.795116 C 59.781984 -14.060363 61.491324 -18.187967 63.049296 -21.321153 C 66.489166 -19.271359 69.775035 -17.880919 73.040667 -17.193063 C 76.306298 -16.505207 79.557081 -16.137567 82.864626 -16.142834 C 90.947035 -16.184384 100.342762 -16.916302 110.989657 -18.348049 C 121.646012 -19.841947 132.799577 -21.260162 144.574653 -22.583772 C 156.35919 -23.969534 167.781598 -24.647323 178.975638 -24.66037 C 189.084726 -24.64779 197.248086 -21.879004 203.413026 -16.425623 C 209.630657 -10.900631 212.733902 -4.132736 212.72276 3.878062 C 212.761676 10.306698 210.68338 16.858199 206.487872 23.532564 C 202.222433 22.310973 196.81528 21.487916 190.285333 20.93909 C 183.817538 20.399725 177.684809 20.165726 171.968216 20.122253 C 165.477429 20.151709 160.664723 20.436596 157.592251 20.986375 C 148.151248 38.308708 139.466837 56.509303 131.520096 75.712459 C 123.644967 94.862925 116.123825 114.194456 109.02828 133.654361 C 101.861123 153.166957 94.554816 172.340415 86.975594 191.217967 Z M 159.641973 149.561859 C 159.600302 144.404628 161.109777 137.830135 164.046096 129.819459 C 166.982415 121.808782 170.620001 112.950982 175.073695 103.327131 C 179.546311 93.578976 184.109459 83.653829 188.76314 73.551688 C 193.426281 63.387397 197.516529 53.644631 201.158186 44.342312 C 201.985073 44.340995 202.87411 44.349139 203.782068 44.23298 C 204.752178 44.126282 205.650676 44.072274 206.539713 44.080418 C 214.612662 44.10102 221.234457 45.299739 226.476711 47.623885 C 231.718965 49.948031 234.368352 53.848828 234.362721 59.316815 C 234.376132 61.735323 233.139692 65.680546 230.715553 71.161944 C 228.291415 76.643342 225.299771 82.928634 221.687933 89.946208 C 218.066635 97.025933 214.445336 104.105658 210.752426 111.238074 C 207.059516 118.37049 204.030031 124.904387 201.663971 130.839764 C 199.235761 136.765681 198.029019 141.351337 198.043747 144.596731 C 198.020633 148.090729 199.605428 149.794559 202.654907 149.813601 C 205.073415 149.80019 208.078348 148.858583 211.722396 147.060392 C 215.304294 145.25274 219.138868 143.038412 223.288269 140.426866 C 227.38498 137.74371 231.252007 134.898409 234.870429 132.015266 C 238.436161 129.060512 241.500611 126.474593 243.939478 124.238588 C 242.696211 129.899735 240.469303 136.174249 237.320905 143.071593 C 234.110355 149.959476 230.120221 156.537919 225.412654 162.816385 C 220.714548 169.032699 215.288231 174.184299 209.205316 178.218495 C 203.122401 182.25269 196.524794 184.237214 189.527336 184.253137 C 183.481067 184.286664 178.21582 182.531339 173.641064 179.164155 C 169.137918 175.744281 165.613026 171.32867 163.181229 165.998396 C 160.811583 160.677582 159.60796 155.2163 159.641973 149.561859 Z M 241.089916 27.654919 C 236.225836 28.695081 231.95357 29.189414 228.201507 29.190609 C 222.351152 29.190367 218.147864 27.978236 215.538952 25.482607 C 212.992192 22.996439 211.696598 19.810441 211.695403 16.058377 C 211.722589 12.11986 212.829337 7.773349 215.015649 3.018844 C 217.264111 -1.726201 220.105704 -6.190187 223.559349 -10.497419 C 233.161768 -10.498372 240.032168 -9.261811 244.161089 -6.725585 C 248.299471 -4.25151 250.336807 -0.507469 250.354168 4.391698 C 250.297163 10.61496 247.212232 18.34865 241.089916 27.654919 Z M 260.354546 182.252362 C 258.131952 182.232003 255.254077 181.921126 251.606078 181.238658 C 248.02969 180.5035 244.438454 179.448125 240.789138 177.938771 C 237.192513 176.501029 234.240392 174.58907 231.789553 172.308276 C 229.410325 169.974791 228.191732 167.11847 228.143235 163.677162 C 228.142039 159.925098 229.643371 154.239642 232.575618 146.673485 C 235.445713 139.097867 239.16976 130.507593 243.685606 120.893201 C 248.263603 111.28827 252.951053 101.382044 257.666885 91.289364 C 262.392177 81.134533 266.649958 71.544451 270.440228 62.519118 C 274.230497 53.493785 276.780376 45.933016 278.161477 39.784121 C 281.975692 39.792386 286.11144 40.612688 290.621412 42.316639 C 295.193536 44.03005 299.154924 46.413592 302.505578 49.467265 C 305.865693 52.458787 307.539582 56.083915 307.527245 60.342649 C 307.574426 62.95707 307.30139 65.586341 306.875671 68.383144 C 306.459412 71.117796 305.622944 74.106442 304.428418 77.358541 C 310.423556 72.229933 315.955254 67.221556 320.880289 62.438792 C 325.876936 57.603336 331.061353 53.623148 336.486232 50.569839 C 341.920571 47.454379 348.131739 45.919762 355.191348 45.9133 C 359.325779 45.906715 363.008865 47.611983 366.250065 50.966952 C 369.491266 54.32192 371.147551 58.898237 371.147308 64.748592 C 371.126828 69.896363 369.553885 75.634509 366.356867 82.015722 C 363.231461 88.344245 359.561544 94.907839 355.428187 101.591665 C 351.29483 108.27549 347.643833 114.714783 344.456276 121.033844 C 341.34033 127.300216 339.786308 132.91406 339.794209 137.875377 C 339.729181 142.062499 341.639581 144.133848 345.391645 144.132652 C 347.996606 144.147622 350.973157 143.392469 354.436141 141.948264 C 357.846434 140.432448 361.160806 138.711257 364.336026 136.650928 C 367.573398 134.600061 369.998732 132.870726 371.736331 131.481845 C 370.860584 136.817387 369.048496 142.455541 366.371681 148.343616 C 363.757016 154.241152 360.310077 159.757637 356.174087 164.78769 C 352.090787 169.889354 347.331967 173.997916 341.878707 177.237679 C 336.497059 180.424751 330.596647 182.006669 324.301774 182.002355 C 313.490101 182.010013 306.006333 179.78981 301.850468 175.341747 C 297.704064 170.831532 295.639785 165.175653 295.676553 158.249807 C 295.66063 151.252349 296.763428 144.425179 298.984947 137.768297 C 301.268618 131.120875 304.049498 124.549137 307.346508 117.92878 C 310.70567 111.317883 313.878378 104.678605 316.811942 97.939333 C 312.553208 97.926997 308.063353 99.850807 303.413986 103.658074 C 298.76462 107.465341 294.255722 112.438631 289.76299 118.559024 C 285.322949 124.751029 281.10852 131.549696 277.244005 138.973947 C 273.388951 146.336047 269.959495 153.82652 267.036708 161.330527 C 264.166612 168.906144 261.897791 175.873783 260.354546 182.252362 Z M 362.119653 149.540533 C 362.140133 144.392762 363.587457 137.808808 366.514315 129.860283 C 369.450634 121.849607 373.150371 113.001268 377.613526 103.315265 C 382.086142 93.56711 386.64929 83.641963 391.240819 73.530362 C 395.90396 63.36607 400.046899 53.694916 403.626405 44.383137 C 404.515443 44.391281 405.35179 44.327813 406.321899 44.221114 C 407.282548 44.176567 408.181046 44.12256 409.070083 44.130703 C 417.090341 44.079693 423.774288 45.287873 429.016542 47.612019 C 434.258796 49.936165 436.846032 53.827501 436.902552 59.304949 C 436.853811 61.713996 435.679523 65.66868 433.193233 71.140617 C 430.831245 76.631476 427.839602 82.916768 424.227764 89.934342 C 420.606465 97.014067 416.985167 104.093792 413.292257 111.226208 C 409.599346 118.358624 406.569862 124.892521 404.141651 130.818438 C 401.775591 136.753815 400.56885 141.339471 400.574117 144.647016 C 400.560464 148.078863 402.083107 149.773232 405.132587 149.792275 C 407.613246 149.788324 410.608718 148.908868 414.190615 147.101217 C 417.834664 145.303026 421.678698 143.026546 425.765949 140.40554 C 429.924811 137.731844 433.782377 134.948694 437.348109 131.993939 C 440.975992 129.048646 443.978291 126.453266 446.417157 124.217262 C 445.236042 129.887869 443.009134 136.162383 439.798584 143.050266 C 436.650186 149.94761 432.660052 156.526053 427.952485 162.804519 C 423.244918 169.082984 417.828062 174.172433 411.682996 178.197168 C 405.60008 182.231364 399.055164 184.287499 392.005016 184.231811 C 386.020898 184.274798 380.746191 182.581625 376.180894 179.152289 C 371.615598 175.722954 368.152857 171.316804 365.72106 165.98653 C 363.351414 160.665716 362.147791 155.204434 362.119653 149.540533 Z M 443.567595 27.633593 C 438.765667 28.683215 434.493401 29.177548 430.679186 29.169283 C 424.890982 29.178501 420.687694 27.96637 418.078783 25.470741 C 415.469871 22.975112 414.236429 19.798575 414.235234 16.046511 C 414.200268 12.098533 415.307017 7.752022 417.555479 3.006978 C 419.803942 -1.738067 422.583384 -6.211514 426.037028 -10.518745 C 435.701598 -10.510238 442.562538 -9.211526 446.70092 -6.737451 C 450.77715 -4.272837 452.814486 -0.528795 452.822387 4.432522 C 452.836993 10.603094 449.752063 18.336784 443.567595 27.633593 Z M 480.702296 -16.633004 C 482.594139 -23.212886 486.667979 -28.252399 492.880585 -31.885306 C 499.217493 -35.499293 505.724568 -37.306823 512.40181 -37.307897 C 518.883137 -37.275202 524.592902 -35.515805 529.512185 -31.905405 C 534.431468 -28.295005 536.849733 -22.458061 536.891282 -14.375652 C 536.884213 -6.809373 534.523542 -0.491628 529.871421 4.587044 C 525.22876 9.603564 519.43768 13.809365 512.588713 17.027451 C 505.730285 20.307689 499.009692 23.100178 492.249941 25.314385 C 495.211886 18.388661 496.69298 12.000621 496.659453 5.954352 C 496.679933 0.806581 495.415476 -3.837275 492.918773 -7.905605 C 490.43153 -12.036086 486.359371 -14.945219 480.702296 -16.633004 Z M 587.858769 136.653444 C 587.860207 134.555153 585.945736 132.928323 582.186967 131.720265 C 578.428197 130.512207 573.780391 129.296005 568.171935 128.12435 C 562.563479 126.952695 556.940175 125.460824 551.220949 123.763579 C 546.308129 127.212787 543.857047 130.782348 543.848782 134.596563 C 543.809381 139.868636 545.889947 143.746441 549.966177 146.211055 C 554.114019 148.622978 558.709135 149.767569 563.919058 149.797509 C 569.707261 149.788292 575.178004 148.522518 580.259673 146.052879 C 585.341343 143.58324 587.859964 140.405508 587.858769 136.653444 Z M 722.327389 80.43076 C 736.11693 80.494834 747.037935 83.111058 755.062022 88.465884 C 763.15772 93.76802 767.208082 100.998038 767.222567 110.093786 C 767.221007 115.117255 765.757518 120.554106 762.937479 126.547563 C 760.11744 132.54102 755.596327 138.847866 749.3836 145.405951 C 739.627544 135.972018 728.173048 128.505247 714.95796 122.996178 C 701.867174 117.506029 687.980516 113.484516 673.41283 111.012711 C 658.782992 108.531446 644.542227 107.254046 630.618923 107.233201 C 618.980365 107.242176 607.983555 108.04834 597.700107 109.599 C 601.779093 110.792209 605.677013 112.339405 609.374948 114.364889 C 613.082343 116.328222 616.097932 119.076528 618.502786 122.494964 C 620.917101 125.85125 622.119406 130.485645 622.109703 136.398151 C 622.131015 143.777977 620.052719 150.329477 615.936966 156.062114 C 611.821213 161.794751 606.361126 166.750437 599.699929 170.823791 C 592.986042 174.825534 585.587175 177.896326 577.441176 180.026706 C 569.295178 182.157086 561.176244 183.274127 553.103295 183.253525 C 538.477408 183.252918 526.953813 180.417788 518.532509 174.748134 C 510.173357 169.087941 505.95139 162.149758 505.938222 153.880895 C 505.957386 147.906238 508.318057 141.588493 513.020235 134.92766 C 517.712953 128.328979 525.240315 121.907412 535.592863 115.72511 C 533.458168 113.873986 531.805834 111.778328 530.63586 109.438137 C 529.465886 107.097947 528.840423 104.522684 528.840545 101.597506 C 528.861146 93.524558 531.243493 85.811105 536.102427 78.538221 C 540.90867 71.193726 547.164628 64.769404 554.755458 59.184183 C 562.40844 53.608423 570.70856 49.212219 579.72743 45.94288 C 588.7463 42.67354 597.457048 41.010671 605.912364 41.025884 C 614.501443 40.997867 621.000253 43.004552 625.356103 46.974327 C 629.774105 50.953562 631.98029 55.677173 631.974658 61.145161 C 631.948789 65.910564 630.054313 70.836674 626.229078 75.914029 C 622.465995 81.000844 616.703296 85.020191 609.003133 87.981529 C 607.426603 82.463485 605.541951 78.55191 603.224875 76.227886 C 600.907798 73.903861 598.544737 72.717479 596.126229 72.73089 C 592.818684 72.736157 589.613765 74.156052 586.387171 76.971655 C 583.284879 79.806179 580.694646 83.036602 578.625931 86.600774 C 576.547756 90.227098 575.515374 93.249513 575.538246 95.605869 C 575.530102 96.494907 575.698952 97.474477 576.044794 98.544579 C 593.200202 93.207011 613.832005 88.843745 637.930741 85.516933 C 662.101089 82.13743 690.212588 80.438885 722.327389 80.43076 Z M 722.327389 80.43076 " stroke="#ffffff" stroke-width="42.192642" stroke-opacity="1" stroke-miterlimit="4"/></g><g fill="#ff3131" fill-opacity="1"><g transform="translate(83.209849, 27.067191)"><g><path d="M 3.328125 0.015625 C 2.992188 0.0546875 2.660156 0.0351562 2.328125 -0.046875 C 1.992188 -0.128906 1.703125 -0.28125 1.453125 -0.5 C 1.210938 -0.726562 1.0625 -1.035156 1 -1.421875 C 0.957031 -1.691406 0.976562 -2.066406 1.0625 -2.546875 C 1.144531 -3.035156 1.257812 -3.59375 1.40625 -4.21875 C 1.550781 -4.84375 1.71875 -5.503906 1.90625 -6.203125 C 2.09375 -6.910156 2.269531 -7.609375 2.4375 -8.296875 C 2.613281 -8.992188 2.765625 -9.640625 2.890625 -10.234375 C 2.640625 -10.203125 2.394531 -10.15625 2.15625 -10.09375 C 1.925781 -10.039062 1.703125 -10 1.484375 -9.96875 C 1.054688 -9.894531 0.660156 -9.929688 0.296875 -10.078125 C -0.0546875 -10.234375 -0.269531 -10.550781 -0.34375 -11.03125 C -0.394531 -11.351562 -0.382812 -11.679688 -0.3125 -12.015625 C -0.25 -12.347656 -0.1875 -12.617188 -0.125 -12.828125 C 0.0820312 -12.734375 0.289062 -12.675781 0.5 -12.65625 C 0.71875 -12.644531 0.929688 -12.65625 1.140625 -12.6875 C 1.628906 -12.757812 2.191406 -12.894531 2.828125 -13.09375 C 3.472656 -13.289062 4.148438 -13.484375 4.859375 -13.671875 C 5.566406 -13.867188 6.265625 -14.019531 6.953125 -14.125 C 7.585938 -14.21875 8.113281 -14.125 8.53125 -13.84375 C 8.957031 -13.5625 9.210938 -13.171875 9.296875 -12.671875 C 9.359375 -12.273438 9.296875 -11.851562 9.109375 -11.40625 C 8.816406 -11.445312 8.46875 -11.453125 8.0625 -11.421875 C 7.65625 -11.398438 7.28125 -11.359375 6.9375 -11.296875 C 6.53125 -11.242188 6.238281 -11.1875 6.0625 -11.125 C 5.65625 -9.957031 5.296875 -8.75 4.984375 -7.5 C 4.671875 -6.25 4.382812 -4.988281 4.125 -3.71875 C 3.875 -2.457031 3.609375 -1.210938 3.328125 0.015625 Z M 3.328125 0.015625 "/></g></g></g><g fill="#ff3131" fill-opacity="1"><g transform="translate(91.028579, 25.877052)"><g><path d="M -0.421875 -2.03125 C -0.472656 -2.351562 -0.441406 -2.769531 -0.328125 -3.28125 C -0.222656 -3.800781 -0.0820312 -4.378906 0.09375 -5.015625 C 0.28125 -5.660156 0.460938 -6.3125 0.640625 -6.96875 C 0.828125 -7.632812 0.992188 -8.273438 1.140625 -8.890625 C 1.191406 -8.898438 1.242188 -8.910156 1.296875 -8.921875 C 1.359375 -8.929688 1.414062 -8.941406 1.46875 -8.953125 C 1.96875 -9.023438 2.390625 -9.015625 2.734375 -8.921875 C 3.078125 -8.835938 3.273438 -8.625 3.328125 -8.28125 C 3.347656 -8.144531 3.304688 -7.890625 3.203125 -7.515625 C 3.109375 -7.148438 2.984375 -6.734375 2.828125 -6.265625 C 2.679688 -5.804688 2.523438 -5.335938 2.359375 -4.859375 C 2.191406 -4.390625 2.0625 -3.960938 1.96875 -3.578125 C 1.882812 -3.191406 1.859375 -2.898438 1.890625 -2.703125 C 1.921875 -2.484375 2.03125 -2.390625 2.21875 -2.421875 C 2.363281 -2.441406 2.535156 -2.523438 2.734375 -2.671875 C 2.941406 -2.816406 3.160156 -2.992188 3.390625 -3.203125 C 3.628906 -3.410156 3.84375 -3.613281 4.03125 -3.8125 C 4.226562 -4.019531 4.390625 -4.207031 4.515625 -4.375 C 4.492188 -4.019531 4.414062 -3.617188 4.28125 -3.171875 C 4.15625 -2.722656 3.976562 -2.28125 3.75 -1.84375 C 3.519531 -1.414062 3.234375 -1.046875 2.890625 -0.734375 C 2.554688 -0.429688 2.175781 -0.25 1.75 -0.1875 C 1.375 -0.125 1.03125 -0.175781 0.71875 -0.34375 C 0.414062 -0.519531 0.164062 -0.757812 -0.03125 -1.0625 C -0.238281 -1.363281 -0.367188 -1.6875 -0.421875 -2.03125 Z M 3.4375 -10.296875 C 3.15625 -10.179688 2.894531 -10.109375 2.65625 -10.078125 C 2.300781 -10.023438 2.03125 -10.0625 1.84375 -10.1875 C 1.664062 -10.320312 1.5625 -10.5 1.53125 -10.71875 C 1.488281 -10.96875 1.515625 -11.25 1.609375 -11.5625 C 1.703125 -11.875 1.832031 -12.175781 2 -12.46875 C 2.59375 -12.5625 3.03125 -12.550781 3.3125 -12.4375 C 3.59375 -12.320312 3.753906 -12.109375 3.796875 -11.796875 C 3.859375 -11.410156 3.738281 -10.910156 3.4375 -10.296875 Z M 3.4375 -10.296875 "/></g></g></g><g fill="#ff3131" fill-opacity="1"><g transform="translate(95.444419, 25.204889)"><g><path d="M 1.671875 -0.296875 C 1.523438 -0.273438 1.332031 -0.269531 1.09375 -0.28125 C 0.863281 -0.289062 0.632812 -0.320312 0.40625 -0.375 C 0.175781 -0.4375 -0.0195312 -0.523438 -0.1875 -0.640625 C -0.351562 -0.753906 -0.457031 -0.921875 -0.5 -1.140625 C -0.53125 -1.367188 -0.492188 -1.726562 -0.390625 -2.21875 C -0.285156 -2.71875 -0.140625 -3.28125 0.046875 -3.90625 C 0.242188 -4.539062 0.441406 -5.191406 0.640625 -5.859375 C 0.835938 -6.523438 1.007812 -7.15625 1.15625 -7.75 C 1.300781 -8.34375 1.382812 -8.835938 1.40625 -9.234375 C 1.644531 -9.265625 1.910156 -9.242188 2.203125 -9.171875 C 2.492188 -9.109375 2.757812 -9 3 -8.84375 C 3.238281 -8.695312 3.378906 -8.488281 3.421875 -8.21875 C 3.441406 -8.070312 3.453125 -7.910156 3.453125 -7.734375 C 3.453125 -7.566406 3.429688 -7.375 3.390625 -7.15625 C 3.703125 -7.53125 3.988281 -7.882812 4.25 -8.21875 C 4.519531 -8.5625 4.804688 -8.851562 5.109375 -9.09375 C 5.410156 -9.34375 5.773438 -9.5 6.203125 -9.5625 C 6.453125 -9.601562 6.691406 -9.53125 6.921875 -9.34375 C 7.160156 -9.164062 7.304688 -8.898438 7.359375 -8.546875 C 7.410156 -8.234375 7.363281 -7.867188 7.21875 -7.453125 C 7.082031 -7.035156 6.921875 -6.597656 6.734375 -6.140625 C 6.546875 -5.691406 6.382812 -5.257812 6.25 -4.84375 C 6.113281 -4.4375 6.066406 -4.078125 6.109375 -3.765625 C 6.148438 -3.515625 6.289062 -3.40625 6.53125 -3.4375 C 6.6875 -3.457031 6.859375 -3.53125 7.046875 -3.65625 C 7.242188 -3.78125 7.429688 -3.921875 7.609375 -4.078125 C 7.785156 -4.234375 7.921875 -4.363281 8.015625 -4.46875 C 8.015625 -4.125 7.960938 -3.753906 7.859375 -3.359375 C 7.753906 -2.972656 7.597656 -2.609375 7.390625 -2.265625 C 7.179688 -1.921875 6.921875 -1.625 6.609375 -1.375 C 6.304688 -1.125 5.960938 -0.96875 5.578125 -0.90625 C 4.910156 -0.8125 4.425781 -0.878906 4.125 -1.109375 C 3.832031 -1.335938 3.65625 -1.664062 3.59375 -2.09375 C 3.53125 -2.519531 3.535156 -2.945312 3.609375 -3.375 C 3.691406 -3.8125 3.800781 -4.25 3.9375 -4.6875 C 4.082031 -5.125 4.210938 -5.5625 4.328125 -6 C 4.066406 -5.957031 3.8125 -5.800781 3.5625 -5.53125 C 3.3125 -5.257812 3.078125 -4.910156 2.859375 -4.484375 C 2.648438 -4.066406 2.457031 -3.613281 2.28125 -3.125 C 2.113281 -2.632812 1.976562 -2.144531 1.875 -1.65625 C 1.769531 -1.164062 1.703125 -0.710938 1.671875 -0.296875 Z M 1.671875 -0.296875 "/></g></g></g><g fill="#ff3131" fill-opacity="1"><g transform="translate(103.468905, 23.983431)"><g><path d="M -0.421875 -2.03125 C -0.472656 -2.351562 -0.441406 -2.769531 -0.328125 -3.28125 C -0.222656 -3.800781 -0.0820312 -4.378906 0.09375 -5.015625 C 0.28125 -5.660156 0.460938 -6.3125 0.640625 -6.96875 C 0.828125 -7.632812 0.992188 -8.273438 1.140625 -8.890625 C 1.191406 -8.898438 1.242188 -8.910156 1.296875 -8.921875 C 1.359375 -8.929688 1.414062 -8.941406 1.46875 -8.953125 C 1.96875 -9.023438 2.390625 -9.015625 2.734375 -8.921875 C 3.078125 -8.835938 3.273438 -8.625 3.328125 -8.28125 C 3.347656 -8.144531 3.304688 -7.890625 3.203125 -7.515625 C 3.109375 -7.148438 2.984375 -6.734375 2.828125 -6.265625 C 2.679688 -5.804688 2.523438 -5.335938 2.359375 -4.859375 C 2.191406 -4.390625 2.0625 -3.960938 1.96875 -3.578125 C 1.882812 -3.191406 1.859375 -2.898438 1.890625 -2.703125 C 1.921875 -2.484375 2.03125 -2.390625 2.21875 -2.421875 C 2.363281 -2.441406 2.535156 -2.523438 2.734375 -2.671875 C 2.941406 -2.816406 3.160156 -2.992188 3.390625 -3.203125 C 3.628906 -3.410156 3.84375 -3.613281 4.03125 -3.8125 C 4.226562 -4.019531 4.390625 -4.207031 4.515625 -4.375 C 4.492188 -4.019531 4.414062 -3.617188 4.28125 -3.171875 C 4.15625 -2.722656 3.976562 -2.28125 3.75 -1.84375 C 3.519531 -1.414062 3.234375 -1.046875 2.890625 -0.734375 C 2.554688 -0.429688 2.175781 -0.25 1.75 -0.1875 C 1.375 -0.125 1.03125 -0.175781 0.71875 -0.34375 C 0.414062 -0.519531 0.164062 -0.757812 -0.03125 -1.0625 C -0.238281 -1.363281 -0.367188 -1.6875 -0.421875 -2.03125 Z M 3.4375 -10.296875 C 3.15625 -10.179688 2.894531 -10.109375 2.65625 -10.078125 C 2.300781 -10.023438 2.03125 -10.0625 1.84375 -10.1875 C 1.664062 -10.320312 1.5625 -10.5 1.53125 -10.71875 C 1.488281 -10.96875 1.515625 -11.25 1.609375 -11.5625 C 1.703125 -11.875 1.832031 -12.175781 2 -12.46875 C 2.59375 -12.5625 3.03125 -12.550781 3.3125 -12.4375 C 3.59375 -12.320312 3.753906 -12.109375 3.796875 -11.796875 C 3.859375 -11.410156 3.738281 -10.910156 3.4375 -10.296875 Z M 3.4375 -10.296875 "/></g></g></g><g fill="#ff3131" fill-opacity="1"><g transform="translate(107.884746, 23.311268)"><g><path d="M 0.890625 -12.6875 C 0.953125 -13.113281 1.15625 -13.460938 1.5 -13.734375 C 1.84375 -14.015625 2.222656 -14.1875 2.640625 -14.25 C 3.035156 -14.3125 3.398438 -14.253906 3.734375 -14.078125 C 4.078125 -13.898438 4.285156 -13.5625 4.359375 -13.0625 C 4.429688 -12.601562 4.347656 -12.195312 4.109375 -11.84375 C 3.867188 -11.488281 3.550781 -11.179688 3.15625 -10.921875 C 2.769531 -10.660156 2.378906 -10.425781 1.984375 -10.21875 C 2.097656 -10.65625 2.128906 -11.0625 2.078125 -11.4375 C 2.023438 -11.757812 1.90625 -12.035156 1.71875 -12.265625 C 1.53125 -12.492188 1.253906 -12.632812 0.890625 -12.6875 Z M 0.890625 -12.6875 "/></g></g></g><g fill="#ff3131" fill-opacity="1"><g transform="translate(112.585478, 22.59574)"><g><path d="M 4.203125 -3.546875 C 4.179688 -3.679688 4.046875 -3.765625 3.796875 -3.796875 C 3.554688 -3.835938 3.257812 -3.863281 2.90625 -3.875 C 2.5625 -3.894531 2.203125 -3.9375 1.828125 -4 C 1.566406 -3.75 1.453125 -3.507812 1.484375 -3.28125 C 1.535156 -2.945312 1.695312 -2.722656 1.96875 -2.609375 C 2.238281 -2.492188 2.535156 -2.460938 2.859375 -2.515625 C 3.210938 -2.566406 3.535156 -2.691406 3.828125 -2.890625 C 4.117188 -3.097656 4.242188 -3.316406 4.203125 -3.546875 Z M 11.9375 -8.265625 C 12.789062 -8.390625 13.488281 -8.328125 14.03125 -8.078125 C 14.570312 -7.828125 14.882812 -7.425781 14.96875 -6.875 C 15.019531 -6.5625 14.988281 -6.207031 14.875 -5.8125 C 14.757812 -5.414062 14.535156 -4.988281 14.203125 -4.53125 C 13.523438 -5.019531 12.753906 -5.375 11.890625 -5.59375 C 11.035156 -5.8125 10.144531 -5.925781 9.21875 -5.9375 C 8.300781 -5.945312 7.414062 -5.890625 6.5625 -5.765625 C 5.84375 -5.648438 5.171875 -5.5 4.546875 -5.3125 C 4.816406 -5.28125 5.070312 -5.21875 5.3125 -5.125 C 5.5625 -5.03125 5.773438 -4.890625 5.953125 -4.703125 C 6.140625 -4.515625 6.257812 -4.25 6.3125 -3.90625 C 6.382812 -3.4375 6.316406 -3.003906 6.109375 -2.609375 C 5.910156 -2.222656 5.625 -1.875 5.25 -1.5625 C 4.875 -1.257812 4.445312 -1.003906 3.96875 -0.796875 C 3.488281 -0.585938 3 -0.441406 2.5 -0.359375 C 1.601562 -0.222656 0.867188 -0.289062 0.296875 -0.5625 C -0.273438 -0.832031 -0.597656 -1.222656 -0.671875 -1.734375 C -0.734375 -2.097656 -0.644531 -2.503906 -0.40625 -2.953125 C -0.175781 -3.410156 0.222656 -3.878906 0.796875 -4.359375 C 0.648438 -4.453125 0.53125 -4.5625 0.4375 -4.6875 C 0.34375 -4.820312 0.28125 -4.976562 0.25 -5.15625 C 0.175781 -5.65625 0.253906 -6.148438 0.484375 -6.640625 C 0.710938 -7.140625 1.035156 -7.59375 1.453125 -8 C 1.867188 -8.414062 2.335938 -8.765625 2.859375 -9.046875 C 3.378906 -9.335938 3.898438 -9.523438 4.421875 -9.609375 C 4.941406 -9.691406 5.359375 -9.628906 5.671875 -9.421875 C 5.984375 -9.222656 6.164062 -8.953125 6.21875 -8.609375 C 6.257812 -8.316406 6.179688 -7.992188 5.984375 -7.640625 C 5.796875 -7.296875 5.484375 -7 5.046875 -6.75 C 4.898438 -7.0625 4.742188 -7.28125 4.578125 -7.40625 C 4.410156 -7.53125 4.253906 -7.582031 4.109375 -7.5625 C 3.910156 -7.53125 3.726562 -7.410156 3.5625 -7.203125 C 3.394531 -7.003906 3.265625 -6.785156 3.171875 -6.546875 C 3.078125 -6.304688 3.039062 -6.109375 3.0625 -5.953125 C 3.070312 -5.898438 3.085938 -5.84375 3.109375 -5.78125 C 4.128906 -6.28125 5.363281 -6.742188 6.8125 -7.171875 C 8.269531 -7.597656 9.976562 -7.960938 11.9375 -8.265625 Z M 11.9375 -8.265625 "/></g></g></g><g fill="#ff3131" fill-opacity="1"><g transform="translate(127.669928, 20.29964)"><g/></g></g></svg>